{
    "asset" : {
        "generator" : "Khronos glTF Blender I/O v0.9.36",
        "version" : "2.0"
    },
    "scene" : 0,
    "scenes" : [
        {
            "name" : "Scene",
            "nodes" : [
                0,
                1,
                2
            ]
        }
    ],
    "nodes" : [
        {
            "name" : "Light",
            "rotation" : [
                0.16907575726509094,
                0.7558803558349609,
                -0.27217137813568115,
                0.570947527885437
            ],
            "translation" : [
                4.076245307922363,
                5.903861999511719,
                -1.0054539442062378
            ]
        },
        {
            "name" : "Camera",
            "rotation" : [
                0.483536034822464,
                0.33687159419059753,
                -0.20870360732078552,
                0.7804827094078064
            ],
            "translation" : [
                7.358891487121582,
                4.958309173583984,
                6.925790786743164
            ]
        },
        {
            "mesh" : 0,
            "name" : "group1769749722",
            "rotation" : [
                0.7071067690849304,
                0,
                0,
                0.7071067690849304
            ],
            "scale" : [
                4,
                4,
                4
            ],
            "translation" : [
                0,
                0.6294765472412109,
                0
            ]
        }
    ],
    "materials" : [
        {
            "doubleSided" : true,
            "name" : "mat4",
            "pbrMetallicRoughness" : {
                "baseColorFactor" : [
                    0,
                    0.7400000095367432,
                    0.8299999833106995,
                    1
                ],
                "metallicFactor" : 0,
                "roughnessFactor" : 1
            }
        },
        {
            "doubleSided" : true,
            "name" : "mat3",
            "pbrMetallicRoughness" : {
                "baseColorFactor" : [
                    0.5,
                    0.8700000047683716,
                    0.9200000166893005,
                    1
                ],
                "metallicFactor" : 0,
                "roughnessFactor" : 1
            }
        },
        {
            "doubleSided" : true,
            "name" : "mat15",
            "pbrMetallicRoughness" : {
                "baseColorFactor" : [
                    0.8100000023841858,
                    0.8500000238418579,
                    0.8600000143051147,
                    1
                ],
                "metallicFactor" : 0,
                "roughnessFactor" : 1
            }
        },
        {
            "doubleSided" : true,
            "name" : "mat13",
            "pbrMetallicRoughness" : {
                "baseColorFactor" : [
                    1,
                    0.6000000238418579,
                    0,
                    1
                ],
                "metallicFactor" : 0,
                "roughnessFactor" : 1
            }
        },
        {
            "doubleSided" : true,
            "name" : "mat8",
            "pbrMetallicRoughness" : {
                "baseColorFactor" : [
                    0.9599999785423279,
                    0.25999999046325684,
                    0.20999999344348907,
                    1
                ],
                "metallicFactor" : 0,
                "roughnessFactor" : 1
            }
        },
        {
            "doubleSided" : true,
            "name" : "mat23",
            "pbrMetallicRoughness" : {
                "baseColorFactor" : [
                    0.10000000149011612,
                    0.10000000149011612,
                    0.10000000149011612,
                    1
                ],
                "metallicFactor" : 0,
                "roughnessFactor" : 1
            }
        },
        {
            "alphaMode" : "BLEND",
            "doubleSided" : true,
            "name" : "mat24",
            "pbrMetallicRoughness" : {
                "baseColorFactor" : [
                    0.9200000166893005,
                    0.949999988079071,
                    0.9399999976158142,
                    1
                ],
                "metallicFactor" : 0,
                "roughnessFactor" : 0.4226497411727905
            }
        },
        {
            "doubleSided" : true,
            "name" : "mat17",
            "pbrMetallicRoughness" : {
                "baseColorFactor" : [
                    0.27000001072883606,
                    0.3499999940395355,
                    0.38999998569488525,
                    1
                ],
                "metallicFactor" : 0,
                "roughnessFactor" : 1
            }
        },
        {
            "doubleSided" : true,
            "name" : "mat12",
            "pbrMetallicRoughness" : {
                "baseColorFactor" : [
                    1,
                    0.9200000166893005,
                    0.23000000417232513,
                    1
                ],
                "metallicFactor" : 0,
                "roughnessFactor" : 1
            }
        },
        {
            "doubleSided" : true,
            "name" : "mat16",
            "pbrMetallicRoughness" : {
                "baseColorFactor" : [
                    0.4699999988079071,
                    0.5600000023841858,
                    0.6100000143051147,
                    1
                ],
                "metallicFactor" : 0,
                "roughnessFactor" : 1
            }
        }
    ],
    "meshes" : [
        {
            "name" : "group1769749722",
            "primitives" : [
                {
                    "attributes" : {
                        "POSITION" : 0,
                        "NORMAL" : 1,
                        "TEXCOORD_0" : 2
                    },
                    "indices" : 3,
                    "material" : 0
                },
                {
                    "attributes" : {
                        "POSITION" : 4,
                        "NORMAL" : 5,
                        "TEXCOORD_0" : 6
                    },
                    "indices" : 7,
                    "material" : 1
                },
                {
                    "attributes" : {
                        "POSITION" : 8,
                        "NORMAL" : 9,
                        "TEXCOORD_0" : 10
                    },
                    "indices" : 11,
                    "material" : 2
                },
                {
                    "attributes" : {
                        "POSITION" : 12,
                        "NORMAL" : 13,
                        "TEXCOORD_0" : 14
                    },
                    "indices" : 15,
                    "material" : 3
                },
                {
                    "attributes" : {
                        "POSITION" : 16,
                        "NORMAL" : 17,
                        "TEXCOORD_0" : 18
                    },
                    "indices" : 19,
                    "material" : 4
                },
                {
                    "attributes" : {
                        "POSITION" : 20,
                        "NORMAL" : 21,
                        "TEXCOORD_0" : 22
                    },
                    "indices" : 23,
                    "material" : 5
                },
                {
                    "attributes" : {
                        "POSITION" : 24,
                        "NORMAL" : 25,
                        "TEXCOORD_0" : 26
                    },
                    "indices" : 27,
                    "material" : 6
                },
                {
                    "attributes" : {
                        "POSITION" : 28,
                        "NORMAL" : 29,
                        "TEXCOORD_0" : 30
                    },
                    "indices" : 31,
                    "material" : 7
                },
                {
                    "attributes" : {
                        "POSITION" : 32,
                        "NORMAL" : 33,
                        "TEXCOORD_0" : 34
                    },
                    "indices" : 35,
                    "material" : 8
                },
                {
                    "attributes" : {
                        "POSITION" : 36,
                        "NORMAL" : 37,
                        "TEXCOORD_0" : 38
                    },
                    "indices" : 39,
                    "material" : 9
                }
            ]
        }
    ],
    "accessors" : [
        {
            "bufferView" : 0,
            "componentType" : 5126,
            "count" : 540,
            "max" : [
                0.06575453281402588,
                0.0628662109375,
                0.12986791133880615
            ],
            "min" : [
                -0.06151813268661499,
                -0.06440675258636475,
                -0.13345478475093842
            ],
            "type" : "VEC3"
        },
        {
            "bufferView" : 1,
            "componentType" : 5126,
            "count" : 540,
            "type" : "VEC3"
        },
        {
            "bufferView" : 2,
            "componentType" : 5126,
            "count" : 540,
            "type" : "VEC2"
        },
        {
            "bufferView" : 3,
            "componentType" : 5123,
            "count" : 912,
            "type" : "SCALAR"
        },
        {
            "bufferView" : 4,
            "componentType" : 5126,
            "count" : 48,
            "max" : [
                0.06575453281402588,
                0.0628662109375,
                0.13864532113075256
            ],
            "min" : [
                -0.06151813268661499,
                -0.06440675258636475,
                0.12986791133880615
            ],
            "type" : "VEC3"
        },
        {
            "bufferView" : 5,
            "componentType" : 5126,
            "count" : 48,
            "type" : "VEC3"
        },
        {
            "bufferView" : 6,
            "componentType" : 5126,
            "count" : 48,
            "type" : "VEC2"
        },
        {
            "bufferView" : 7,
            "componentType" : 5123,
            "count" : 72,
            "type" : "SCALAR"
        },
        {
            "bufferView" : 8,
            "componentType" : 5126,
            "count" : 155,
            "max" : [
                0.07211816310882568,
                0.06922924518585205,
                0.151811420917511
            ],
            "min" : [
                -0.06788188219070435,
                -0.07077085971832275,
                -0.1246773824095726
            ],
            "type" : "VEC3"
        },
        {
            "bufferView" : 9,
            "componentType" : 5126,
            "count" : 155,
            "type" : "VEC3"
        },
        {
            "bufferView" : 10,
            "componentType" : 5126,
            "count" : 155,
            "type" : "VEC2"
        },
        {
            "bufferView" : 11,
            "componentType" : 5123,
            "count" : 276,
            "type" : "SCALAR"
        },
        {
            "bufferView" : 12,
            "componentType" : 5126,
            "count" : 8,
            "max" : [
                -0.05299246311187744,
                0.031048178672790527,
                0.11670181155204773
            ],
            "min" : [
                -0.06151813268661499,
                -0.032588839530944824,
                0.1035357117652893
            ],
            "type" : "VEC3"
        },
        {
            "bufferView" : 13,
            "componentType" : 5126,
            "count" : 8,
            "type" : "VEC3"
        },
        {
            "bufferView" : 14,
            "componentType" : 5126,
            "count" : 8,
            "type" : "VEC2"
        },
        {
            "bufferView" : 15,
            "componentType" : 5123,
            "count" : 12,
            "type" : "SCALAR"
        },
        {
            "bufferView" : 16,
            "componentType" : 5126,
            "count" : 36,
            "max" : [
                -0.011198043823242188,
                0.014859199523925781,
                0.06808634102344513
            ],
            "min" : [
                -0.023674845695495605,
                -0.011595845222473145,
                0.04589952901005745
            ],
            "type" : "VEC3"
        },
        {
            "bufferView" : 17,
            "componentType" : 5126,
            "count" : 36,
            "type" : "VEC3"
        },
        {
            "bufferView" : 18,
            "componentType" : 5126,
            "count" : 36,
            "type" : "VEC2"
        },
        {
            "bufferView" : 19,
            "componentType" : 5123,
            "count" : 60,
            "type" : "SCALAR"
        },
        {
            "bufferView" : 20,
            "componentType" : 5126,
            "count" : 678,
            "max" : [
                0.014179766178131104,
                0.08428716659545898,
                0.06961210072040558
            ],
            "min" : [
                -0.024919331073760986,
                -0.08163785934448242,
                -0.14677639305591583
            ],
            "type" : "VEC3"
        },
        {
            "bufferView" : 21,
            "componentType" : 5126,
            "count" : 678,
            "type" : "VEC3"
        },
        {
            "bufferView" : 22,
            "componentType" : 5126,
            "count" : 678,
            "type" : "VEC2"
        },
        {
            "bufferView" : 23,
            "componentType" : 5123,
            "count" : 1068,
            "type" : "SCALAR"
        },
        {
            "bufferView" : 24,
            "componentType" : 5126,
            "count" : 72,
            "max" : [
                0.04381066560745239,
                0.04092216491699219,
                0.031121866777539253
            ],
            "min" : [
                -0.039575040340423584,
                -0.042462825775146484,
                -0.07420740276575089
            ],
            "type" : "VEC3"
        },
        {
            "bufferView" : 25,
            "componentType" : 5126,
            "count" : 72,
            "type" : "VEC3"
        },
        {
            "bufferView" : 26,
            "componentType" : 5126,
            "count" : 72,
            "type" : "VEC2"
        },
        {
            "bufferView" : 27,
            "componentType" : 5123,
            "count" : 132,
            "type" : "SCALAR"
        },
        {
            "bufferView" : 28,
            "componentType" : 5126,
            "count" : 72,
            "max" : [
                0.05478227138519287,
                0.051894187927246094,
                0.03770507872104645
            ],
            "min" : [
                -0.05054682493209839,
                -0.05343484878540039,
                0.02892746590077877
            ],
            "type" : "VEC3"
        },
        {
            "bufferView" : 29,
            "componentType" : 5126,
            "count" : 72,
            "type" : "VEC3"
        },
        {
            "bufferView" : 30,
            "componentType" : 5126,
            "count" : 72,
            "type" : "VEC2"
        },
        {
            "bufferView" : 31,
            "componentType" : 5123,
            "count" : 132,
            "type" : "SCALAR"
        },
        {
            "bufferView" : 32,
            "componentType" : 5126,
            "count" : 36,
            "max" : [
                0.01045846939086914,
                0.008860230445861816,
                0.03331650793552399
            ],
            "min" : [
                -0.006222844123840332,
                -0.010400772094726562,
                -0.0720125287771225
            ],
            "type" : "VEC3"
        },
        {
            "bufferView" : 33,
            "componentType" : 5126,
            "count" : 36,
            "type" : "VEC3"
        },
        {
            "bufferView" : 34,
            "componentType" : 5126,
            "count" : 36,
            "type" : "VEC2"
        },
        {
            "bufferView" : 35,
            "componentType" : 5123,
            "count" : 60,
            "type" : "SCALAR"
        },
        {
            "bufferView" : 36,
            "componentType" : 5126,
            "count" : 36,
            "max" : [
                0.02844977378845215,
                0.022034168243408203,
                -0.10492808371782303
            ],
            "min" : [
                -0.024214744567871094,
                -0.0235748291015625,
                -0.1174674853682518
            ],
            "type" : "VEC3"
        },
        {
            "bufferView" : 37,
            "componentType" : 5126,
            "count" : 36,
            "type" : "VEC3"
        },
        {
            "bufferView" : 38,
            "componentType" : 5126,
            "count" : 36,
            "type" : "VEC2"
        },
        {
            "bufferView" : 39,
            "componentType" : 5123,
            "count" : 60,
            "type" : "SCALAR"
        }
    ],
    "bufferViews" : [
        {
            "buffer" : 0,
            "byteLength" : 6480,
            "byteOffset" : 0
        },
        {
            "buffer" : 0,
            "byteLength" : 6480,
            "byteOffset" : 6480
        },
        {
            "buffer" : 0,
            "byteLength" : 4320,
            "byteOffset" : 12960
        },
        {
            "buffer" : 0,
            "byteLength" : 1824,
            "byteOffset" : 17280
        },
        {
            "buffer" : 0,
            "byteLength" : 576,
            "byteOffset" : 19104
        },
        {
            "buffer" : 0,
            "byteLength" : 576,
            "byteOffset" : 19680
        },
        {
            "buffer" : 0,
            "byteLength" : 384,
            "byteOffset" : 20256
        },
        {
            "buffer" : 0,
            "byteLength" : 144,
            "byteOffset" : 20640
        },
        {
            "buffer" : 0,
            "byteLength" : 1860,
            "byteOffset" : 20784
        },
        {
            "buffer" : 0,
            "byteLength" : 1860,
            "byteOffset" : 22644
        },
        {
            "buffer" : 0,
            "byteLength" : 1240,
            "byteOffset" : 24504
        },
        {
            "buffer" : 0,
            "byteLength" : 552,
            "byteOffset" : 25744
        },
        {
            "buffer" : 0,
            "byteLength" : 96,
            "byteOffset" : 26296
        },
        {
            "buffer" : 0,
            "byteLength" : 96,
            "byteOffset" : 26392
        },
        {
            "buffer" : 0,
            "byteLength" : 64,
            "byteOffset" : 26488
        },
        {
            "buffer" : 0,
            "byteLength" : 24,
            "byteOffset" : 26552
        },
        {
            "buffer" : 0,
            "byteLength" : 432,
            "byteOffset" : 26576
        },
        {
            "buffer" : 0,
            "byteLength" : 432,
            "byteOffset" : 27008
        },
        {
            "buffer" : 0,
            "byteLength" : 288,
            "byteOffset" : 27440
        },
        {
            "buffer" : 0,
            "byteLength" : 120,
            "byteOffset" : 27728
        },
        {
            "buffer" : 0,
            "byteLength" : 8136,
            "byteOffset" : 27848
        },
        {
            "buffer" : 0,
            "byteLength" : 8136,
            "byteOffset" : 35984
        },
        {
            "buffer" : 0,
            "byteLength" : 5424,
            "byteOffset" : 44120
        },
        {
            "buffer" : 0,
            "byteLength" : 2136,
            "byteOffset" : 49544
        },
        {
            "buffer" : 0,
            "byteLength" : 864,
            "byteOffset" : 51680
        },
        {
            "buffer" : 0,
            "byteLength" : 864,
            "byteOffset" : 52544
        },
        {
            "buffer" : 0,
            "byteLength" : 576,
            "byteOffset" : 53408
        },
        {
            "buffer" : 0,
            "byteLength" : 264,
            "byteOffset" : 53984
        },
        {
            "buffer" : 0,
            "byteLength" : 864,
            "byteOffset" : 54248
        },
        {
            "buffer" : 0,
            "byteLength" : 864,
            "byteOffset" : 55112
        },
        {
            "buffer" : 0,
            "byteLength" : 576,
            "byteOffset" : 55976
        },
        {
            "buffer" : 0,
            "byteLength" : 264,
            "byteOffset" : 56552
        },
        {
            "buffer" : 0,
            "byteLength" : 432,
            "byteOffset" : 56816
        },
        {
            "buffer" : 0,
            "byteLength" : 432,
            "byteOffset" : 57248
        },
        {
            "buffer" : 0,
            "byteLength" : 288,
            "byteOffset" : 57680
        },
        {
            "buffer" : 0,
            "byteLength" : 120,
            "byteOffset" : 57968
        },
        {
            "buffer" : 0,
            "byteLength" : 432,
            "byteOffset" : 58088
        },
        {
            "buffer" : 0,
            "byteLength" : 432,
            "byteOffset" : 58520
        },
        {
            "buffer" : 0,
            "byteLength" : 288,
            "byteOffset" : 58952
        },
        {
            "buffer" : 0,
            "byteLength" : 120,
            "byteOffset" : 59240
        }
    ],
    "buffers" : [
        {
            "byteLength" : 59360,
            "uri" : "data:application/octet-stream;base64,"
        }
    ]
}
