{
    "asset" : {
        "generator" : "Khronos glTF Blender I/O v0.9.36",
        "version" : "2.0"
    },
    "scene" : 0,
    "scenes" : [
        {
            "name" : "Scene",
            "nodes" : [
                0,
                1,
                2
            ]
        }
    ],
    "nodes" : [
        {
            "name" : "Light",
            "rotation" : [
                0.16907575726509094,
                0.7558803558349609,
                -0.27217137813568115,
                0.570947527885437
            ],
            "translation" : [
                4.076245307922363,
                5.903861999511719,
                -1.0054539442062378
            ]
        },
        {
            "name" : "Camera",
            "rotation" : [
                0.483536034822464,
                0.33687159419059753,
                -0.20870360732078552,
                0.7804827094078064
            ],
            "translation" : [
                7.358891487121582,
                4.958309173583984,
                6.925790786743164
            ]
        },
        {
            "mesh" : 0,
            "name" : "Marshmallow_227",
            "rotation" : [
                0.7071068286895752,
                0,
                0,
                0.7071067094802856
            ],
            "translation" : [
                -33.23674011230469,
                -0.6945888996124268,
                -13.628068923950195
            ]
        }
    ],
    "materials" : [
        {
            "doubleSided" : true,
            "name" : "03___Default",
            "pbrMetallicRoughness" : {
                "baseColorFactor" : [
                    0.7569000124931335,
                    0.5059000253677368,
                    0.819599986076355,
                    1
                ],
                "metallicFactor" : 0,
                "roughnessFactor" : 0.8945907354354858
            }
        },
        {
            "doubleSided" : true,
            "name" : "04___Default",
            "pbrMetallicRoughness" : {
                "baseColorFactor" : [
                    1,
                    1,
                    1,
                    1
                ],
                "metallicFactor" : 0,
                "roughnessFactor" : 0.8945907354354858
            }
        },
        {
            "doubleSided" : true,
            "name" : "02___Default",
            "pbrMetallicRoughness" : {
                "baseColorFactor" : [
                    0.5724999904632568,
                    0.7372999787330627,
                    0.5216000080108643,
                    1
                ],
                "metallicFactor" : 0,
                "roughnessFactor" : 0.8945907354354858
            }
        },
        {
            "doubleSided" : true,
            "name" : "wire_153227214",
            "pbrMetallicRoughness" : {
                "baseColorFactor" : [
                    0.6000000238418579,
                    0.8902000188827515,
                    0.8392000198364258,
                    1
                ],
                "metallicFactor" : 0,
                "roughnessFactor" : 0.8114382028579712
            }
        }
    ],
    "meshes" : [
        {
            "name" : "Marshmallow_227",
            "primitives" : [
                {
                    "attributes" : {
                        "POSITION" : 0,
                        "NORMAL" : 1,
                        "TEXCOORD_0" : 2
                    },
                    "indices" : 3,
                    "material" : 0
                },
                {
                    "attributes" : {
                        "POSITION" : 4,
                        "NORMAL" : 5,
                        "TEXCOORD_0" : 6
                    },
                    "indices" : 7,
                    "material" : 1
                },
                {
                    "attributes" : {
                        "POSITION" : 8,
                        "NORMAL" : 9,
                        "TEXCOORD_0" : 10
                    },
                    "indices" : 11,
                    "material" : 2
                },
                {
                    "attributes" : {
                        "POSITION" : 12,
                        "NORMAL" : 13,
                        "TEXCOORD_0" : 14
                    },
                    "indices" : 15,
                    "material" : 3
                }
            ]
        }
    ],
    "accessors" : [
        {
            "bufferView" : 0,
            "componentType" : 5126,
            "count" : 1184,
            "max" : [
                58.3296012878418,
                39.2510986328125,
                0.4844000041484833
            ],
            "min" : [
                -26.231399536132812,
                -28.35540008544922,
                -10.293800354003906
            ],
            "type" : "VEC3"
        },
        {
            "bufferView" : 1,
            "componentType" : 5126,
            "count" : 1184,
            "type" : "VEC3"
        },
        {
            "bufferView" : 2,
            "componentType" : 5126,
            "count" : 1184,
            "type" : "VEC2"
        },
        {
            "bufferView" : 3,
            "componentType" : 5123,
            "count" : 5760,
            "type" : "SCALAR"
        },
        {
            "bufferView" : 4,
            "componentType" : 5126,
            "count" : 888,
            "max" : [
                53.2495002746582,
                27.37420082092285,
                0.4844000041484833
            ],
            "min" : [
                -16.964799880981445,
                -7.0117998123168945,
                -10.293800354003906
            ],
            "type" : "VEC3"
        },
        {
            "bufferView" : 5,
            "componentType" : 5126,
            "count" : 888,
            "type" : "VEC3"
        },
        {
            "bufferView" : 6,
            "componentType" : 5126,
            "count" : 888,
            "type" : "VEC2"
        },
        {
            "bufferView" : 7,
            "componentType" : 5123,
            "count" : 4320,
            "type" : "SCALAR"
        },
        {
            "bufferView" : 8,
            "componentType" : 5126,
            "count" : 888,
            "max" : [
                64.66510009765625,
                29.910900115966797,
                0.4844000041484833
            ],
            "min" : [
                -14.632599830627441,
                -20.64859962463379,
                -9.24470043182373
            ],
            "type" : "VEC3"
        },
        {
            "bufferView" : 9,
            "componentType" : 5126,
            "count" : 888,
            "type" : "VEC3"
        },
        {
            "bufferView" : 10,
            "componentType" : 5126,
            "count" : 888,
            "type" : "VEC2"
        },
        {
            "bufferView" : 11,
            "componentType" : 5123,
            "count" : 4320,
            "type" : "SCALAR"
        },
        {
            "bufferView" : 12,
            "componentType" : 5126,
            "count" : 897,
            "max" : [
                18.300500869750977,
                28.19059944152832,
                -0.20839999616146088
            ],
            "min" : [
                -64.0823974609375,
                -48.094398498535156,
                -14.38129997253418
            ],
            "type" : "VEC3"
        },
        {
            "bufferView" : 13,
            "componentType" : 5126,
            "count" : 897,
            "type" : "VEC3"
        },
        {
            "bufferView" : 14,
            "componentType" : 5126,
            "count" : 897,
            "type" : "VEC2"
        },
        {
            "bufferView" : 15,
            "componentType" : 5123,
            "count" : 4416,
            "type" : "SCALAR"
        }
    ],
    "bufferViews" : [
        {
            "buffer" : 0,
            "byteLength" : 14208,
            "byteOffset" : 0
        },
        {
            "buffer" : 0,
            "byteLength" : 14208,
            "byteOffset" : 14208
        },
        {
            "buffer" : 0,
            "byteLength" : 9472,
            "byteOffset" : 28416
        },
        {
            "buffer" : 0,
            "byteLength" : 11520,
            "byteOffset" : 37888
        },
        {
            "buffer" : 0,
            "byteLength" : 10656,
            "byteOffset" : 49408
        },
        {
            "buffer" : 0,
            "byteLength" : 10656,
            "byteOffset" : 60064
        },
        {
            "buffer" : 0,
            "byteLength" : 7104,
            "byteOffset" : 70720
        },
        {
            "buffer" : 0,
            "byteLength" : 8640,
            "byteOffset" : 77824
        },
        {
            "buffer" : 0,
            "byteLength" : 10656,
            "byteOffset" : 86464
        },
        {
            "buffer" : 0,
            "byteLength" : 10656,
            "byteOffset" : 97120
        },
        {
            "buffer" : 0,
            "byteLength" : 7104,
            "byteOffset" : 107776
        },
        {
            "buffer" : 0,
            "byteLength" : 8640,
            "byteOffset" : 114880
        },
        {
            "buffer" : 0,
            "byteLength" : 10764,
            "byteOffset" : 123520
        },
        {
            "buffer" : 0,
            "byteLength" : 10764,
            "byteOffset" : 134284
        },
        {
            "buffer" : 0,
            "byteLength" : 7176,
            "byteOffset" : 145048
        },
        {
            "buffer" : 0,
            "byteLength" : 8832,
            "byteOffset" : 152224
        }
    ],
    "buffers" : [
        {
            "byteLength" : 161056,
            "uri" : "data:application/octet-stream;base64,"
        }
    ]
}
